{
    "asset" : {
        "generator" : "Khronos glTF Blender I/O v1.1.45",
        "version" : "2.0"
    },
    "extensionsUsed" : [
        "KHR_lights_punctual"
    ],
    "extensionsRequired" : [
        "KHR_lights_punctual"
    ],
    "extensions" : {
        "KHR_lights_punctual" : {
            "lights" : [
                {
                    "color" : [
                        1,
                        1,
                        1
                    ],
                    "intensity" : 1,
                    "type" : "directional",
                    "name" : "Sun"
                },
                {
                    "color" : [
                        1,
                        1,
                        1
                    ],
                    "intensity" : 1,
                    "type" : "directional",
                    "name" : "Sun.001"
                }
            ]
        }
    },
    "scene" : 0,
    "scenes" : [
        {
            "extras" : {
                "glTF2ExportSettings" : {
                    "export_apply" : 1,
                    "export_cameras" : 1,
                    "export_copyright" : "",
                    "export_draco_mesh_compression_enable" : 0,
                    "export_extras" : 1,
                    "export_format" : "GLTF_SEPARATE",
                    "export_image_format" : "JPEG",
                    "export_lights" : 1,
                    "export_selected" : 0,
                    "export_tangents" : 1,
                    "export_texture_dir" : "012"
                }
            },
            "name" : "Scene",
            "nodes" : [
                1,
                3,
                5
            ]
        }
    ],
    "nodes" : [
        {
            "mesh" : 0,
            "name" : "Test_W",
            "rotation" : [
                -0.7071068286895752,
                0,
                0,
                0.7071068286895752
            ],
            "scale" : [
                0.009999999776482582,
                0.009999999776482582,
                0.009999999776482582
            ]
        },
        {
            "children" : [
                0
            ],
            "name" : "Selection",
            "rotation" : [
                0.7071068286895752,
                0,
                0,
                0.7071067094802856
            ],
            "scale" : [
                0.4106872081756592,
                0.41068726778030396,
                0.41068726778030396
            ],
            "translation" : [
                -0.006290793418884277,
                -0.00994756817817688,
                -0.3110195994377136
            ]
        },
        {
            "extensions" : {
                "KHR_lights_punctual" : {
                    "light" : 0
                }
            },
            "name" : "Sun_Orientation",
            "rotation" : [
                -0.7071067690849304,
                0,
                0,
                0.7071067690849304
            ]
        },
        {
            "children" : [
                2
            ],
            "name" : "Sun",
            "rotation" : [
                -0.2564511299133301,
                0.5185461640357971,
                -0.3746753931045532,
                0.724541962146759
            ],
            "scale" : [
                0.4106872081756592,
                0.4106872081756592,
                0.4106872081756592
            ],
            "translation" : [
                3.5233631134033203,
                6.156824111938477,
                -3.0603814125061035
            ]
        },
        {
            "extensions" : {
                "KHR_lights_punctual" : {
                    "light" : 1
                }
            },
            "name" : "Sun.001_Orientation",
            "rotation" : [
                -0.7071067690849304,
                0,
                0,
                0.7071067690849304
            ]
        },
        {
            "children" : [
                4
            ],
            "name" : "Sun.001",
            "rotation" : [
                0.2897688150405884,
                -0.20110344886779785,
                0.062124669551849365,
                0.9336658716201782
            ],
            "scale" : [
                0.4106872081756592,
                0.4106872081756592,
                0.4106872081756592
            ],
            "translation" : [
                -2.338611602783203,
                6.132205009460449,
                1.7881011962890625
            ]
        }
    ],
    "materials" : [
        {
            "emissiveFactor" : [
                0,
                0,
                0
            ],
            "name" : "Test_W_mat",
            "pbrMetallicRoughness" : {
                "baseColorTexture" : {
                    "index" : 0,
                    "texCoord" : 0
                },
                "metallicFactor" : 0,
                "roughnessFactor" : 0
            }
        }
    ],
    "meshes" : [
        {
            "name" : "Mesh_0",
            "primitives" : [
                {
                    "attributes" : {
                        "POSITION" : 0,
                        "NORMAL" : 1,
                        "TANGENT" : 2,
                        "TEXCOORD_0" : 3
                    },
                    "indices" : 4,
                    "material" : 0
                }
            ]
        }
    ],
    "textures" : [
        {
            "source" : 0
        }
    ],
    "images" : [
        {
            "mimeType" : "image/jpeg",
            "name" : "Image_0",
            "uri" : "012/Image_0.jpg"
        }
    ],
    "accessors" : [
        {
            "bufferView" : 0,
            "componentType" : 5126,
            "count" : 16402,
            "max" : [
                263.876953125,
                1721.5128173828125,
                520.0512084960938
            ],
            "min" : [
                -263.876953125,
                0,
                -520.0512084960938
            ],
            "type" : "VEC3"
        },
        {
            "bufferView" : 1,
            "componentType" : 5126,
            "count" : 16402,
            "type" : "VEC3"
        },
        {
            "bufferView" : 2,
            "componentType" : 5126,
            "count" : 16402,
            "type" : "VEC4"
        },
        {
            "bufferView" : 3,
            "componentType" : 5126,
            "count" : 16402,
            "type" : "VEC2"
        },
        {
            "bufferView" : 4,
            "componentType" : 5123,
            "count" : 31428,
            "type" : "SCALAR"
        }
    ],
    "bufferViews" : [
        {
            "buffer" : 0,
            "byteLength" : 196824,
            "byteOffset" : 0
        },
        {
            "buffer" : 0,
            "byteLength" : 196824,
            "byteOffset" : 196824
        },
        {
            "buffer" : 0,
            "byteLength" : 262432,
            "byteOffset" : 393648
        },
        {
            "buffer" : 0,
            "byteLength" : 131216,
            "byteOffset" : 656080
        },
        {
            "buffer" : 0,
            "byteLength" : 62856,
            "byteOffset" : 787296
        }
    ],
    "buffers" : [
        {
            "byteLength" : 850152,
            "uri" : "012.bin"
        }
    ]
}
