{
    "asset" : {
        "generator" : "Khronos glTF Blender I/O v1.1.45",
        "version" : "2.0"
    },
    "scene" : 0,
    "scenes" : [
        {
            "name" : "Scene",
            "nodes" : [
                0,
                1,
                2
            ]
        }
    ],
    "nodes" : [
        {
            "name" : "Camera",
            "rotation" : [
                0.483536034822464,
                0.33687159419059753,
                -0.20870360732078552,
                0.7804827094078064
            ],
            "translation" : [
                7.358891487121582,
                4.958309173583984,
                6.925790786743164
            ]
        },
        {
            "mesh" : 0,
            "name" : "Robotics_hight_01",
            "rotation" : [
                0.7071068286895752,
                0,
                0,
                0.7071067094802856
            ],
            "scale" : [
                0.009999999776482582,
                0.009999999776482582,
                0.009999999776482582
            ]
        },
        {
            "name" : "Sun",
            "rotation" : [
                0.030711248517036438,
                0.5503597259521484,
                0.43522101640701294,
                0.7118592858314514
            ],
            "translation" : [
                -3.837996482849121,
                6.332793235778809,
                5.571676254272461
            ]
        }
    ],
    "materials" : [
        {
            "doubleSided" : true,
            "emissiveFactor" : [
                0,
                0,
                0
            ],
            "name" : "Color__d1d1d1ff.003",
            "pbrMetallicRoughness" : {
                "baseColorFactor" : [
                    0.638870894908905,
                    0.797105610370636,
                    0.8200001120567322,
                    1
                ],
                "metallicFactor" : 0.800000011920929,
                "roughnessFactor" : 1
            }
        },
        {
            "doubleSided" : true,
            "emissiveFactor" : [
                0,
                0,
                0
            ],
            "name" : "Color__9c9c9cff.002",
            "pbrMetallicRoughness" : {
                "baseColorFactor" : [
                    0.4497184753417969,
                    0.487519770860672,
                    0.6117649078369141,
                    1
                ],
                "metallicFactor" : 0.8999999761581421,
                "roughnessFactor" : 1
            }
        },
        {
            "doubleSided" : true,
            "emissiveFactor" : [
                0,
                0,
                0
            ],
            "name" : "Color__545659ff.001",
            "pbrMetallicRoughness" : {
                "baseColorFactor" : [
                    0.1522577553987503,
                    0.20044779777526855,
                    0.3155747652053833,
                    1
                ],
                "metallicFactor" : 0.8999999761581421,
                "roughnessFactor" : 1
            }
        },
        {
            "doubleSided" : true,
            "emissiveFactor" : [
                0,
                0,
                0
            ],
            "name" : "Color__cc0000ff.001",
            "pbrMetallicRoughness" : {
                "baseColorFactor" : [
                    0.800000011920929,
                    0,
                    0,
                    1
                ],
                "metallicFactor" : 0.8999999761581421,
                "roughnessFactor" : 0.800000011920929
            }
        },
        {
            "doubleSided" : true,
            "emissiveFactor" : [
                0,
                0,
                0
            ],
            "name" : "Color__545454ff.001",
            "pbrMetallicRoughness" : {
                "baseColorFactor" : [
                    0.530019223690033,
                    0.5354328751564026,
                    0.6706491112709045,
                    1
                ],
                "metallicFactor" : 0.800000011920929,
                "roughnessFactor" : 1
            }
        }
    ],
    "meshes" : [
        {
            "name" : "Robotics_hight_01",
            "primitives" : [
                {
                    "attributes" : {
                        "POSITION" : 0,
                        "NORMAL" : 1
                    },
                    "indices" : 2,
                    "material" : 0
                },
                {
                    "attributes" : {
                        "POSITION" : 3,
                        "NORMAL" : 4
                    },
                    "indices" : 5,
                    "material" : 1
                },
                {
                    "attributes" : {
                        "POSITION" : 6,
                        "NORMAL" : 7
                    },
                    "indices" : 8,
                    "material" : 2
                },
                {
                    "attributes" : {
                        "POSITION" : 9,
                        "NORMAL" : 10
                    },
                    "indices" : 11,
                    "material" : 3
                },
                {
                    "attributes" : {
                        "POSITION" : 12,
                        "NORMAL" : 13
                    },
                    "indices" : 14,
                    "material" : 4
                }
            ]
        }
    ],
    "accessors" : [
        {
            "bufferView" : 0,
            "componentType" : 5126,
            "count" : 10673,
            "max" : [
                196.1999969482422,
                67.5,
                1
            ],
            "min" : [
                -212.28500366210938,
                -67.5,
                -309.1080017089844
            ],
            "type" : "VEC3"
        },
        {
            "bufferView" : 1,
            "componentType" : 5126,
            "count" : 10673,
            "type" : "VEC3"
        },
        {
            "bufferView" : 2,
            "componentType" : 5123,
            "count" : 30954,
            "type" : "SCALAR"
        },
        {
            "bufferView" : 3,
            "componentType" : 5126,
            "count" : 7135,
            "max" : [
                58.977901458740234,
                75.5,
                -124.09100341796875
            ],
            "min" : [
                -218.43800354003906,
                -80.5,
                -390.0419921875
            ],
            "type" : "VEC3"
        },
        {
            "bufferView" : 4,
            "componentType" : 5126,
            "count" : 7135,
            "type" : "VEC3"
        },
        {
            "bufferView" : 5,
            "componentType" : 5123,
            "count" : 24501,
            "type" : "SCALAR"
        },
        {
            "bufferView" : 6,
            "componentType" : 5126,
            "count" : 9789,
            "max" : [
                68.5,
                100.5,
                -81
            ],
            "min" : [
                -221.9949951171875,
                -75,
                -399.1579895019531
            ],
            "type" : "VEC3"
        },
        {
            "bufferView" : 7,
            "componentType" : 5126,
            "count" : 9789,
            "type" : "VEC3"
        },
        {
            "bufferView" : 8,
            "componentType" : 5123,
            "count" : 30996,
            "type" : "SCALAR"
        },
        {
            "bufferView" : 9,
            "componentType" : 5126,
            "count" : 2230,
            "max" : [
                0.38772499561309814,
                100.5,
                -164.78900146484375
            ],
            "min" : [
                -162.86900329589844,
                -75,
                -341.6289978027344
            ],
            "type" : "VEC3"
        },
        {
            "bufferView" : 10,
            "componentType" : 5126,
            "count" : 2230,
            "type" : "VEC3"
        },
        {
            "bufferView" : 11,
            "componentType" : 5123,
            "count" : 5370,
            "type" : "SCALAR"
        },
        {
            "bufferView" : 12,
            "componentType" : 5126,
            "count" : 3019,
            "max" : [
                58.977901458740234,
                55,
                -121
            ],
            "min" : [
                -68,
                -55,
                -373.9949951171875
            ],
            "type" : "VEC3"
        },
        {
            "bufferView" : 13,
            "componentType" : 5126,
            "count" : 3019,
            "type" : "VEC3"
        },
        {
            "bufferView" : 14,
            "componentType" : 5123,
            "count" : 11295,
            "type" : "SCALAR"
        }
    ],
    "bufferViews" : [
        {
            "buffer" : 0,
            "byteLength" : 128076,
            "byteOffset" : 0
        },
        {
            "buffer" : 0,
            "byteLength" : 128076,
            "byteOffset" : 128076
        },
        {
            "buffer" : 0,
            "byteLength" : 61908,
            "byteOffset" : 256152
        },
        {
            "buffer" : 0,
            "byteLength" : 85620,
            "byteOffset" : 318060
        },
        {
            "buffer" : 0,
            "byteLength" : 85620,
            "byteOffset" : 403680
        },
        {
            "buffer" : 0,
            "byteLength" : 49002,
            "byteOffset" : 489300
        },
        {
            "buffer" : 0,
            "byteLength" : 117468,
            "byteOffset" : 538304
        },
        {
            "buffer" : 0,
            "byteLength" : 117468,
            "byteOffset" : 655772
        },
        {
            "buffer" : 0,
            "byteLength" : 61992,
            "byteOffset" : 773240
        },
        {
            "buffer" : 0,
            "byteLength" : 26760,
            "byteOffset" : 835232
        },
        {
            "buffer" : 0,
            "byteLength" : 26760,
            "byteOffset" : 861992
        },
        {
            "buffer" : 0,
            "byteLength" : 10740,
            "byteOffset" : 888752
        },
        {
            "buffer" : 0,
            "byteLength" : 36228,
            "byteOffset" : 899492
        },
        {
            "buffer" : 0,
            "byteLength" : 36228,
            "byteOffset" : 935720
        },
        {
            "buffer" : 0,
            "byteLength" : 22590,
            "byteOffset" : 971948
        }
    ],
    "buffers" : [
        {
            "byteLength" : 994540,
            "uri" : "data:application/octet-stream;base64,"
        }
    ]
}
